<?xml version="1.0" encoding="UTF-8"?>
<svg version="1.1" xmlns="http://www.w3.org/2000/svg" width="1024" height="1024">
<path d="M0 0 C337.92 0 675.84 0 1024 0 C1024 337.92 1024 675.84 1024 1024 C686.08 1024 348.16 1024 0 1024 C0 686.08 0 348.16 0 0 Z " fill="#000000" transform="translate(0,0)"/>
<path d="M0 0 C1.36863693 0.00040787 1.36863693 0.00040787 2.7649231 0.00082397 C17.04866195 0.02027203 31.18785842 0.45693088 45.41064453 1.87988281 C48.55186057 2.19266393 51.69504982 2.46797417 54.83984375 2.7421875 C148.7466544 11.48674673 236.78199245 52.58970853 325.76953125 129.45703125 C327.48121938 131.16871938 329.26509598 132.70202956 331.125 134.25 C384.8916611 180.6369233 424.06573984 252.15773334 446.5 318.1875 C447.01191895 319.67056641 447.01191895 319.67056641 447.53417969 321.18359375 C464.48231954 370.55214658 472.74808415 423.29204978 472.6875 475.4375 C472.68756042 476.24856201 472.68762085 477.05962402 472.68768311 477.89526367 C472.66610759 498.45723299 471.62879733 518.84071983 468.5 539.1875 C461.41844713 534.82529202 454.60081521 530.17759127 447.8125 525.375 C439.82514304 519.73835253 431.71100616 514.42864911 423.36523438 509.34228516 C421.58299711 508.23888433 419.82825251 507.10271188 418.078125 505.94921875 C398.67780731 493.2668891 377.51527383 483.11098664 356.8125 472.75 C355.85111115 472.26848984 355.85111115 472.26848984 354.87030029 471.7772522 C349.20438928 468.9429196 349.20438928 468.9429196 343.5 466.1875 C342.26479614 465.57249634 342.26479614 465.57249634 341.00463867 464.94506836 C335.32321181 463.22662918 330.42042305 465.91313715 325.36328125 468.3984375 C324.69052658 468.72230942 324.01777191 469.04618134 323.32463074 469.37986755 C321.14930254 470.43153825 318.98051108 471.49583497 316.8125 472.5625 C316.07112793 472.92475677 315.32975586 473.28701355 314.56591797 473.6602478 C302.91704915 479.35822156 291.50210307 485.30633513 280.5 492.1875 C279.77474121 492.63931641 279.04948242 493.09113281 278.30224609 493.55664062 C264.38483206 502.27980612 251.09539533 511.78582396 238.15625 521.89453125 C236.451184 523.22560872 234.74136821 524.55042183 233.03125 525.875 C226.07780366 531.27959723 219.28906743 536.84194052 212.59375 542.5625 C209.7044868 545.02665964 206.76481542 547.42411 203.8125 549.8125 C199.41485904 553.38916313 195.20731843 557.13074823 191.01953125 560.94921875 C188.46795083 563.21597158 185.84828468 565.36290087 183.1875 567.5 C178.96603381 570.91170681 174.95907927 574.48049476 171 578.1875 C166.17263853 582.70714122 161.23269314 586.99189377 156.0234375 591.07421875 C153.46593646 593.11343432 153.46593646 593.11343432 151.4140625 595.51953125 C147.92167008 599.33975361 145.378056 601.32699468 140.16015625 601.68359375 C135.9174569 601.76781279 131.72736981 601.53694963 127.5 601.1875 C132.05363732 593.70206879 137.58026526 587.0633073 143.12890625 580.3125 C146.18790129 576.5871462 149.16680215 572.8055397 152.125 569 C166.60787791 550.45845987 182.4204805 532.20338715 200.421875 516.98046875 C203.30419783 514.49365262 206.08447228 511.90141849 208.875 509.3125 C216.89159656 501.89347084 224.9135576 494.54659407 233.41796875 487.68359375 C235.64517045 485.87981442 237.85320108 484.0617117 240.05078125 482.22265625 C247.49995019 476.02469631 255.12370568 470.18544709 263.0625 464.625 C263.89515381 464.04145752 264.72780762 463.45791504 265.58569336 462.85668945 C270.11204727 459.72502834 274.67491585 456.83643882 279.5 454.1875 C278.81711914 453.93170166 278.13423828 453.67590332 277.43066406 453.41235352 C250.3781232 443.24159506 221.90933494 432.53451107 198.5 415.1875 C197.60152344 414.54425781 196.70304688 413.90101563 195.77734375 413.23828125 C187.18726501 406.79888497 183.03587033 399.77816101 178.953125 390.0390625 C178.43626633 388.80746147 178.43626633 388.80746147 177.90896606 387.55097961 C173.09367301 375.94387543 168.75334145 364.1519733 164.375 352.375 C163.92099823 351.15414703 163.46699646 349.93329407 162.99923706 348.67544556 C162.54050201 347.44168182 162.08176697 346.20791809 161.60913086 344.93676758 C160.92062798 343.08538933 160.92062798 343.08538933 160.21821594 341.1966095 C159.29727742 338.71993417 158.37693425 336.24303738 157.4571991 333.76591492 C155.02504968 327.22898028 152.5565786 320.70898434 150.01971436 314.21195984 C148.66258878 310.73424333 147.32403242 307.24954026 145.98760986 303.76382446 C145.37878591 302.19171546 144.76064571 300.62317739 144.13250732 299.0586853 C141.04698732 291.36546803 138.59028695 285.19165976 140.8371582 276.86694336 C142.0926154 271.79193682 141.83896587 266.57611842 141.8125 261.375 C141.80512817 259.66086914 141.80512817 259.66086914 141.79760742 257.91210938 C141.63316282 246.05860522 140.46551813 234.23126411 133.5 224.1875 C130.20877322 221.19852874 127.7028401 220.61651028 123.20703125 220.765625 C115.70305793 221.93507539 108.0197292 224.90047439 102.5 230.1875 C100.64201724 233.1836769 100.64201724 233.1836769 99.1875 236.4375 C98.67574219 237.51515625 98.16398438 238.5928125 97.63671875 239.703125 C97.07404297 240.93289062 97.07404297 240.93289062 96.5 242.1875 C94.6468503 236.62805091 97.65393871 230.98114993 100.0625 225.875 C103.59815289 221.97671604 107.70441243 220.21806411 112.5 218.1875 C113.63308594 217.70410156 113.63308594 217.70410156 114.7890625 217.2109375 C118.26389375 215.81840213 120.71251146 215.1875 124.5 215.1875 C124.24476563 214.31689941 124.24476563 214.31689941 123.984375 213.42871094 C123.15529297 210.5985865 122.32746939 207.76809637 121.5 204.9375 C121.18530762 203.86137451 120.87061523 202.78524902 120.54638672 201.67651367 C118.53397319 194.77872107 116.55671618 187.8719416 114.60400391 180.95703125 C97.13655393 115.65569356 97.13655393 115.65569356 50.19677734 69.73974609 C36.37395672 62.06718068 22.03105965 57.81896501 6.5 55.1875 C5.36691406 54.99285156 4.23382812 54.79820313 3.06640625 54.59765625 C-56.6340128 47.73178111 -145.45041804 78.922727 -194.0625 112.4375 C-206.08813197 122.0855715 -215.04150719 134.77464121 -217.5 150.1875 C-218.38795482 161.97837544 -216.96470395 171.01843913 -209.6875 180.5 C-208.3186376 182.08618179 -206.92472506 183.65129837 -205.5 185.1875 C-204.98953125 185.74050781 -204.4790625 186.29351562 -203.953125 186.86328125 C-197.17235924 193.34695161 -187.18007253 197.92831568 -178.5 201.1875 C-178.5 199.5375 -178.5 197.8875 -178.5 196.1875 C-171.76229934 202.54018919 -167.9155877 207.7747237 -166.875 217.125 C-166.76438232 217.98907471 -166.65376465 218.85314941 -166.53979492 219.7434082 C-166.30404971 221.59814643 -166.07632733 223.45391912 -165.85595703 225.31054688 C-165.49853703 228.19932417 -165.08279464 231.07439368 -164.65234375 233.953125 C-163.12381578 244.49454643 -162.20357645 254.90546999 -162.125 265.5625 C-162.11122314 266.57787842 -162.09744629 267.59325684 -162.08325195 268.6394043 C-162.12348629 275.11391363 -162.83209209 281.21617205 -165.5 287.1875 C-166.16 287.5175 -166.82 287.8475 -167.5 288.1875 C-169.4453125 287.41015625 -169.4453125 287.41015625 -171.625 286.25 C-172.34945313 285.86972656 -173.07390625 285.48945313 -173.8203125 285.09765625 C-174.37460937 284.79730469 -174.92890625 284.49695313 -175.5 284.1875 C-172.33047153 287.44758643 -169.10062011 290.40987877 -165.5 293.1875 C-165.83 292.1975 -166.16 291.2075 -166.5 290.1875 C-162.02080265 290.94040729 -157.80994674 292.34323856 -153.5234375 293.8046875 C-152.37459579 294.19142136 -152.37459579 294.19142136 -151.20254517 294.58596802 C-147.94549282 295.68246745 -144.6908307 296.78598321 -141.43603516 297.88916016 C-139.04937014 298.69693221 -136.66148115 299.50100171 -134.2734375 300.3046875 C-133.50578064 300.56586365 -132.73812378 300.82703979 -131.94720459 301.09613037 C-127.67530111 302.53165169 -123.44077936 303.70539725 -119.0390625 304.6953125 C-115.5773442 305.62191227 -114.77160992 305.84941576 -112.45703125 308.73046875 C-111.19232489 313.29889786 -110.10197227 317.84842322 -109.1875 322.5 C-108.98165283 323.51731201 -108.77580566 324.53462402 -108.5637207 325.58276367 C-106.67573678 335.0367047 -104.92412868 344.51726897 -103.1875 354 C-103.05258148 354.73449371 -102.91766296 355.46898743 -102.77865601 356.22573853 C-102.39472736 358.32309009 -102.01491078 360.42113851 -101.63671875 362.51953125 C-101.30740356 364.34061401 -101.30740356 364.34061401 -100.97143555 366.19848633 C-100.5 369.1875 -100.5 369.1875 -100.5 372.1875 C-103.47 372.5175 -106.44 372.8475 -109.5 373.1875 C-109.56041977 372.5471431 -109.62083954 371.90678619 -109.68309021 371.24702454 C-110.31270658 364.579505 -110.94595094 357.9123371 -111.58129883 351.24536133 C-111.81790652 348.75749393 -112.05359042 346.26953849 -112.28833008 343.78149414 C-112.62598471 340.2043539 -112.96696504 336.62754387 -113.30859375 333.05078125 C-113.41280136 331.93915115 -113.51700897 330.82752106 -113.62437439 329.6822052 C-113.77441673 328.12115303 -113.77441673 328.12115303 -113.92749023 326.52856445 C-114.01409409 325.6158931 -114.10069794 324.70322174 -114.18992615 323.76289368 C-114.49845693 321.20031631 -114.95933865 318.7103908 -115.5 316.1875 C-116.53125 316.8475 -117.5625 317.5075 -118.625 318.1875 C-124.52936026 321.15552367 -131.05156461 321.04266885 -137.5 320.1875 C-139.19245688 319.23179739 -140.86411089 318.23709258 -142.5 317.1875 C-138.29931364 348.92198674 -138.29931364 348.92198674 -126.14550781 378.25537109 C-122.87423829 384.08444335 -119.92897836 390.08653485 -116.9375 396.0625 C-116.43376862 397.06287796 -116.43376862 397.06287796 -115.91986084 398.08346558 C-99.24187832 431.24023593 -85.52013074 465.85061802 -71.5 500.1875 C-51.46687331 498.09564834 -31.50601703 495.5658859 -11.54882812 492.85351562 C-7.38912566 492.28884919 -3.22769372 491.73808551 0.93421745 491.18997192 C4.17975309 490.7600072 7.4238647 490.31996778 10.66766739 489.87713623 C12.20369864 489.66922619 13.74024663 489.465095 15.27730942 489.26495361 C17.40637465 488.98681449 19.53301737 488.69439889 21.65966797 488.3984375 C23.46611282 488.15552979 23.46611282 488.15552979 25.30905151 487.90771484 C30.99379663 486.62463621 33.99697535 483.95311771 37.5 479.4375 C41.22222214 474.7475001 45.05769797 470.19396692 49 465.6875 C52.73477715 461.40601322 56.42461871 457.10414748 60 452.6875 C64.59378551 447.01875189 69.37565606 441.52394286 74.16796875 436.0234375 C76.33028326 433.54019859 78.47929345 431.04668464 80.61328125 428.5390625 C81.12012451 427.94391846 81.62696777 427.34877441 82.14916992 426.7355957 C83.07693538 425.64453124 84.00311703 424.55211602 84.92700195 423.45776367 C85.58575317 422.68396362 85.58575317 422.68396362 86.2578125 421.89453125 C86.72759521 421.32202637 87.19737793 420.74952148 87.68139648 420.15966797 C89.5 418.1875 89.5 418.1875 92.27368164 415.89111328 C98.28805136 410.68288567 101.07239314 406.35657782 101.69506836 398.29536438 C101.86223592 393.33544331 101.80081275 388.3978153 101.6875 383.4375 C101.6805299 381.37240667 101.67853545 379.30729026 101.68164062 377.2421875 C101.678477 372.22185396 101.60793484 367.20662938 101.5 362.1875 C104.40643725 365.09393725 104.29717511 368.42285485 104.7890625 372.34375 C104.89721283 373.16065308 105.00536316 373.97755615 105.11679077 374.81921387 C105.34435449 376.55374451 105.56767586 378.28883614 105.78710938 380.02441406 C106.12032872 382.65068333 106.46920236 385.27450739 106.8203125 387.8984375 C109.737371 410.09771787 109.737371 410.09771787 106.91796875 414.859375 C106.18191406 415.54515625 105.44585938 416.2309375 104.6875 416.9375 C100.83949954 420.78550046 97.42613777 424.68975504 94.125 429 C90.45719154 433.73914372 86.70459515 438.38062067 82.8125 442.9375 C79.04711111 447.34692551 75.37291777 451.81270652 71.76953125 456.35546875 C68.83746367 460.01424499 65.85787041 463.63259763 62.875 467.25 C62.28106445 467.97074707 61.68712891 468.69149414 61.07519531 469.43408203 C57.94269044 473.23305951 54.80440456 477.02714289 51.66015625 480.81640625 C51.03641113 481.56978271 50.41266602 482.32315918 49.77001953 483.09936523 C48.58417555 484.53150961 47.39647103 485.96211631 46.20654297 487.39086914 C43.58552987 490.55899445 41.07318552 493.74211259 38.72265625 497.1171875 C36.5 500.1875 36.5 500.1875 34.5 501.1875 C32.88843502 501.35821512 31.27081852 501.47328302 29.65258789 501.56054688 C28.63874527 501.61730591 27.62490265 501.67406494 26.58033752 501.73254395 C25.4723027 501.78986694 24.36426788 501.84718994 23.22265625 501.90625 C22.06873886 501.96905151 20.91482147 502.03185303 19.72593689 502.09655762 C17.26198416 502.22972468 14.79791319 502.36071839 12.33374023 502.48974609 C8.66426182 502.68216388 4.99521173 502.88144479 1.32617188 503.08203125 C-10.85993304 503.73937728 -23.04685793 504.31991201 -35.2421875 504.77734375 C-36.340504 504.81875488 -37.4388205 504.86016602 -38.57041931 504.90283203 C-46.55054666 505.18815571 -54.51534428 505.30787169 -62.5 505.1875 C-62.30857422 506.6725 -62.30857422 506.6725 -62.11328125 508.1875 C-61.17128709 518.49717535 -61.17128709 518.49717535 -64.3515625 522.54296875 C-66.72416634 524.2238618 -69.135564 525.71257346 -71.67675781 527.12402344 C-75.2088081 529.18422845 -78.48776452 531.6251355 -81.8125 534 C-82.90872681 534.77102051 -82.90872681 534.77102051 -84.02709961 535.55761719 C-89.80688411 539.63416167 -95.37595783 543.92896906 -100.90234375 548.33984375 C-104.18485803 550.95541122 -107.52198721 553.49390859 -110.86865234 556.02661133 C-117.93190005 561.37395988 -124.8087907 566.86637045 -131.5234375 572.64453125 C-134.30985982 575.0250574 -137.14207177 577.33124492 -140 579.625 C-150.49841754 588.14679431 -150.49841754 588.14679431 -159.8984375 597.82470703 C-161.98324572 599.59870086 -163.1607878 599.56895238 -165.875 599.59375 C-167.20857544 599.62311646 -167.20857544 599.62311646 -168.5690918 599.65307617 C-169.5362915 599.66443604 -170.50349121 599.6757959 -171.5 599.6875 C-192.07407048 600.29864345 -212.11115786 601.9324883 -231.5 609.1875 C-232.40717773 609.5263623 -233.31435547 609.86522461 -234.24902344 610.21435547 C-264.87511225 621.89856811 -310.09448768 640.95144204 -327.5 671.1875 C-328.8758975 674.83914827 -329.94954584 678.55590701 -331 682.3125 C-331.30260742 683.38363037 -331.60521484 684.45476074 -331.91699219 685.55834961 C-342.13936251 722.46242126 -343.57472243 761.13780989 -340.5 799.1875 C-345.78446095 795.02739245 -349.87298098 790.48159579 -354.05859375 785.2265625 C-356.13925895 782.63655046 -358.27137255 780.1055582 -360.44213867 777.59106445 C-367.1955467 769.74998836 -373.41097624 761.55132812 -379.5 753.1875 C-379.9964502 752.50671387 -380.49290039 751.82592773 -381.00439453 751.12451172 C-441.6420173 667.58241405 -471.73295469 569.63425952 -465.4987793 402.43237305 C-450.34571746 307.66859878 -408.60081277 217.69064904 -342.22900391 148.01806641 C-340.47140968 146.15723027 -338.73840936 144.27624069 -337.01171875 142.38671875 C-331.98900837 136.89429459 -327.04122646 131.52393872 -321.3125 126.75 C-319.32171406 125.03380523 -317.51610701 123.20009433 -315.6875 121.3125 C-311.84796529 117.42067591 -307.72434662 114.00641133 -303.4609375 110.58984375 C-300.93295591 108.53877689 -298.46539763 106.43486514 -296.00976562 104.29833984 C-268.8438744 80.78550169 -236.80368343 61.83287393 -204.55273438 46.18945312 C-202.45947211 45.16771807 -200.37834709 44.12363945 -198.296875 43.078125 C-184.1175138 36.05517265 -169.35709413 30.57589509 -154.5 25.1875 C-153.56430176 24.84444824 -152.62860352 24.50139648 -151.66455078 24.14794922 C-103.39328906 6.60060641 -51.12835411 -0.05805709 0 0 Z " fill="#DF0F0E" transform="translate(511.5,10.8125)"/>
<path d="M0 0 C1.10796432 -0.00065586 2.21592865 -0.00131172 3.35746765 -0.00198746 C9.8219787 -0.00506306 16.28642255 -0.00081619 22.75091934 0.01342392 C24.74062996 0.01742367 26.73034406 0.02000291 28.72005844 0.02099991 C34.09470833 0.02519507 39.46747741 0.05708555 44.84143829 0.14593887 C46.55090316 0.17398133 48.26047248 0.19618309 49.97008514 0.21294785 C52.45200852 0.24434319 54.93070064 0.3097632 57.41162109 0.38549805 C58.51227874 0.39310638 58.51227874 0.39310638 59.63517189 0.40086842 C63.49843016 0.56022265 65.20524046 1.04503997 68.20230103 3.56013489 C68.91929169 4.42716537 69.63628235 5.29419586 70.375 6.1875 C71.72464844 7.59322266 71.72464844 7.59322266 73.1015625 9.02734375 C78.74298219 15.02389925 84.0676075 21.15842406 89.09277344 27.68017578 C92.71139888 32.37360232 96.4591349 36.94493143 100.25 41.5 C105.53064638 47.86359707 110.61947751 54.34598531 115.60961914 60.93920898 C119.22619778 65.71101449 122.92629329 70.40406455 126.6875 75.0625 C130.23801028 79.48305675 133.76834329 83.9142406 137.1875 88.4375 C137.83332031 89.28828125 138.47914063 90.1390625 139.14453125 91.015625 C139.75361328 92.09070313 139.75361328 92.09070313 140.375 93.1875 C139.03800529 97.19848414 136.4791525 98.3419762 133.0625 100.5 C131.68734584 101.39229096 130.31372729 102.28695163 128.94140625 103.18359375 C127.83369873 103.90651611 127.83369873 103.90651611 126.70361328 104.64404297 C122.58342355 107.37499699 118.54338322 110.21956933 114.5 113.0625 C113.65598633 113.65538818 112.81197266 114.24827637 111.94238281 114.85913086 C109.41881175 116.6336825 106.89686118 118.41051959 104.375 120.1875 C102.81908102 121.28135043 101.26309381 122.37510382 99.70703125 123.46875 C91.88013764 128.97503831 84.08881947 134.52343744 76.375 140.1875 C74.95445345 141.22399447 73.53387794 142.26044926 72.11328125 143.296875 C61.04041538 151.39480415 50.15891143 159.70950191 39.375 168.1875 C38.12640126 169.16679313 36.87770817 170.14596597 35.62890625 171.125 C33.32481897 172.93236362 31.02293879 174.74248454 28.72265625 176.5546875 C26.48553411 178.31647823 24.24309177 180.07113686 21.99609375 181.8203125 C13.3021142 188.59856428 4.78200449 195.57428968 -3.70947266 202.60400391 C-6.29918019 204.74482 -8.89850129 206.87352531 -11.5 209 C-12.3559375 209.69996094 -13.211875 210.39992188 -14.09375 211.12109375 C-15.82156298 212.53160774 -17.55079286 213.94038743 -19.28125 215.34765625 C-24.83748247 219.87406977 -30.3330717 224.46391692 -35.79296875 229.10546875 C-39.1631234 231.9657182 -42.5650841 234.77991234 -46 237.5625 C-55.72844775 245.48727933 -65.14556484 253.79296271 -74.44140625 262.21875 C-76.44237985 264.02284784 -78.4645031 265.79757017 -80.5 267.5625 C-84.83395939 271.34060087 -89.06779547 275.22568337 -93.29370117 279.12353516 C-95.34108711 281.01002214 -97.39612243 282.88641274 -99.45898438 284.75610352 C-109.0811105 293.52298268 -118.2603876 302.70887993 -127.4375 311.9375 C-129.01603944 313.52106922 -130.59481403 315.10440407 -132.17382812 316.6875 C-135.99359338 320.51814282 -139.81047306 324.35164123 -143.625 328.1875 C-174.54045127 297.36545862 -198.1218506 259.49049824 -218.625 221.1875 C-219.13321289 220.24342285 -219.64142578 219.2993457 -220.16503906 218.32666016 C-239.6343361 182.00120182 -255.54769419 144.00872706 -269.5 105.25 C-270.09808472 103.59133911 -270.09808472 103.59133911 -270.70825195 101.89916992 C-271.72628477 99.00782979 -272.69072051 96.10682623 -273.625 93.1875 C-273.91060791 92.35637695 -274.19621582 91.52525391 -274.49047852 90.66894531 C-275.1585082 88.41660992 -275.61919959 86.53637581 -275.625 84.1875 C-274.07377868 81.45607111 -272.9655164 79.94599956 -270.8125 77.8125 C-269.7736131 76.69245006 -268.73586809 75.57133996 -267.69921875 74.44921875 C-266.91490479 73.62623291 -266.91490479 73.62623291 -266.11474609 72.78662109 C-263.98655628 70.50218267 -262.0630356 68.07137281 -260.125 65.625 C-255.63189419 60.10855336 -250.85073254 54.89009719 -246.00585938 49.68603516 C-244.68002199 48.24721092 -243.37847641 46.78611689 -242.078125 45.32421875 C-235.35553953 37.79696017 -228.18187218 30.86043885 -220.734375 24.05078125 C-217.7610436 21.31620917 -215.03783744 18.51979684 -212.49707031 15.37963867 C-207.04775593 9.90387958 -203.13394971 8.47115064 -195.58203125 8.0546875 C-194.17523605 7.95202576 -194.17523605 7.95202576 -192.74002075 7.84729004 C-190.5882417 7.69408908 -188.43570746 7.5512791 -186.28268433 7.41668701 C-182.2755419 7.16560329 -178.27092636 6.885963 -174.26586914 6.60400391 C-151.45716546 5.01517894 -128.63219832 3.65204872 -105.80751038 2.31562042 C-103.81851409 2.1988599 -101.82960142 2.08067723 -99.84069824 1.96234131 C-66.57817119 -0.00395504 -33.30916906 0.01233984 0 0 Z " fill="#DF0F0E" transform="translate(547.625,631.8125)"/>
<path d="M0 0 C13.19463724 10.7075208 22.42053248 24.91395675 25.42382812 41.81054688 C25.42382812 44.12054687 25.42382812 46.43054688 25.42382812 48.81054688 C42.91382813 48.81054688 60.40382813 48.81054688 78.42382812 48.81054688 C79.08382812 47.16054688 79.74382812 45.51054688 80.42382812 43.81054688 C85.39104768 33.73890648 91.3994645 24.55763872 98.42382812 15.81054688 C99.20113281 14.82957031 99.9784375 13.84859375 100.77929688 12.83789062 C104.75072874 7.89522082 108.71062752 3.06392303 113.42382812 -1.18945312 C114.08382812 -1.18945312 114.74382812 -1.18945312 115.42382812 -1.18945312 C116.91137434 0.96827181 118.2702995 3.1253733 119.61132812 5.37304688 C120.5088544 6.84315043 121.40874057 8.31181493 122.31054688 9.77929688 C123.05183838 10.98585938 123.05183838 10.98585938 123.80810547 12.21679688 C126.77601734 16.98124168 129.85214924 21.67509411 132.92382812 26.37304688 C133.88240723 27.84209473 133.88240723 27.84209473 134.86035156 29.34082031 C137.74993796 33.76010089 140.65363653 38.16824788 143.60742188 42.54492188 C144.07792969 43.24286865 144.5484375 43.94081543 145.03320312 44.65991211 C145.89466529 45.93326086 146.76030912 47.20379441 147.63085938 48.47094727 C150.42382812 52.59238197 150.42382812 52.59238197 150.42382812 54.81054688 C148.96533203 56.0246582 148.96533203 56.0246582 146.90039062 57.39257812 C146.13581543 57.90570557 145.37124023 58.41883301 144.58349609 58.94750977 C143.74705566 59.50043701 142.91061523 60.05336426 142.04882812 60.62304688 C140.29228911 61.80336063 138.53711228 62.98570376 136.78320312 64.16992188 C135.88666016 64.77513672 134.99011719 65.38035156 134.06640625 66.00390625 C130.09114077 68.72165981 126.1911174 71.53823506 122.29882812 74.37304688 C117.28977007 78.01955846 112.26440565 81.63426815 107.18237305 85.1784668 C98.66371512 91.12033865 90.39284571 97.3448379 82.2019043 103.73168945 C81.34830322 104.39193115 80.49470215 105.05217285 79.61523438 105.73242188 C78.85412354 106.32635742 78.0930127 106.92029297 77.30883789 107.53222656 C75.42382812 108.81054688 75.42382812 108.81054688 73.42382812 108.81054688 C73.09511719 107.84955078 73.09511719 107.84955078 72.75976562 106.86914062 C68.29967074 94.70359725 60.92232172 89.1712521 49.42382812 83.81054688 C27.21015939 74.40575355 2.15694087 73.56515698 -21.59179688 71.83789062 C-22.75770859 71.75301895 -23.9236203 71.66814728 -25.12486267 71.58070374 C-31.00632792 71.15548771 -36.88834269 70.74174698 -42.77172852 70.34399414 C-53.58377516 69.59749986 -64.34800314 68.71495388 -75.09960938 67.33398438 C-76.00733597 67.21861328 -76.91506256 67.10324219 -77.85029602 66.984375 C-93.07757964 64.92012651 -110.07919113 62.03748359 -120.29882812 49.67773438 C-122.92465756 45.83936597 -122.88279087 42.33317699 -122.57617188 37.81054688 C-114.26171625 18.63118912 -91.35977284 5.29561834 -73.04492188 -2.84179688 C-50.12023938 -11.74834582 -21.01548403 -15.85926861 0 0 Z " fill="#000000" transform="translate(485.576171875,673.189453125)"/>
<path d="M0 0 C2.6152014 1.34104353 5.22711203 2.68576856 7.82788086 4.0546875 C8.82505127 4.57724121 9.82222168 5.09979492 10.84960938 5.63818359 C22.76261695 11.98188991 34.2347084 19.04464408 45.70043945 26.15429688 C48.30679651 27.77034621 50.91882295 29.37634695 53.53491211 30.9765625 C77.35667951 45.60872283 99.83072532 62.17884627 120.49584961 81.0078125 C122.59417704 82.90027993 124.73400892 84.72909883 126.89038086 86.5546875 C129.81258785 89.12503691 132.58208186 91.79736978 135.26538086 94.6171875 C135.93569336 95.31972656 136.60600586 96.02226563 137.29663086 96.74609375 C139.15716788 99.67050167 139.03862788 101.65373799 138.76538086 105.0546875 C131.66631739 100.7236075 124.86388082 96.04314077 118.07788086 91.2421875 C110.0905239 85.60554003 101.97638702 80.29583661 93.63061523 75.20947266 C91.84837797 74.10607183 90.09363337 72.96989938 88.34350586 71.81640625 C68.94318817 59.1340766 47.78065469 48.97817414 27.07788086 38.6171875 C26.43695496 38.29618073 25.79602905 37.97517395 25.13568115 37.6444397 C19.46977014 34.8101071 19.46977014 34.8101071 13.76538086 32.0546875 C12.94191162 31.64468506 12.11844238 31.23468262 11.27001953 30.81225586 C5.58859267 29.09381668 0.68580391 31.78032465 -4.37133789 34.265625 C-5.38046989 34.75143288 -5.38046989 34.75143288 -6.4099884 35.24705505 C-8.5853166 36.29872575 -10.75410807 37.36302247 -12.92211914 38.4296875 C-13.66349121 38.79194427 -14.40486328 39.15420105 -15.16870117 39.5274353 C-26.81756999 45.22540906 -38.23251607 51.17352263 -49.23461914 58.0546875 C-49.95987793 58.50650391 -50.68513672 58.95832031 -51.43237305 59.42382812 C-65.34978708 68.14699362 -78.63922381 77.65301146 -91.57836914 87.76171875 C-93.28343514 89.09279622 -94.99325093 90.41760933 -96.70336914 91.7421875 C-103.65681548 97.14678473 -110.44555171 102.70912802 -117.14086914 108.4296875 C-120.03013234 110.89384714 -122.96980372 113.2912975 -125.92211914 115.6796875 C-130.3197601 119.25635063 -134.52730071 122.99793573 -138.71508789 126.81640625 C-141.26666831 129.08315908 -143.88633446 131.23008837 -146.54711914 133.3671875 C-150.76858533 136.77889431 -154.77553987 140.34768226 -158.73461914 144.0546875 C-163.56198061 148.57432872 -168.501926 152.85908127 -173.71118164 156.94140625 C-176.26868268 158.98062182 -176.26868268 158.98062182 -178.32055664 161.38671875 C-181.81294906 165.20694111 -184.35656314 167.19418218 -189.57446289 167.55078125 C-193.81716224 167.63500029 -198.00724933 167.40413713 -202.23461914 167.0546875 C-197.68098182 159.56925629 -192.15435388 152.9304948 -186.60571289 146.1796875 C-183.54671785 142.4543337 -180.56781699 138.6727272 -177.60961914 134.8671875 C-163.12674123 116.32564737 -147.31413865 98.07057465 -129.31274414 82.84765625 C-126.43042131 80.36084012 -123.65014686 77.76860599 -120.85961914 75.1796875 C-112.84302258 67.76065834 -104.82106154 60.41378157 -96.31665039 53.55078125 C-94.08944869 51.74700192 -91.88141806 49.9288992 -89.68383789 48.08984375 C-21.16745045 -8.95448139 -21.16745045 -8.95448139 0 0 Z " fill="#FDFDFD" transform="translate(841.234619140625,444.9453125)"/>
<path d="M0 0 C0.804375 0.38091797 0.804375 0.38091797 1.625 0.76953125 C25.96553847 11.45855061 56.53030575 9.81819431 82.56640625 10.140625 C147.48219115 11.01038155 147.48219115 11.01038155 164.375 26.125 C166.70201285 30.24202274 167.15885674 34.39336453 166 39 C155.52979913 51.68652076 133.57244582 56.44043373 118 58 C111.89924168 58.28749432 105.79249281 58.19143355 99.6875 58.125 C98.06055245 58.11494009 96.4335988 58.10581961 94.80664062 58.09765625 C90.87093975 58.07590427 86.93553966 58.04154447 83 58 C82.68401855 57.18088135 82.36803711 56.3617627 82.04248047 55.51782227 C81.61338379 54.44072998 81.18428711 53.3636377 80.7421875 52.25390625 C80.32308105 51.1872876 79.90397461 50.12066895 79.47216797 49.02172852 C76.67956718 43.28971857 72.03155443 39.75402066 66.3125 37.125 C55.84778518 33.57094591 43.9038154 33.66921187 33.8828125 38.50390625 C31.77453717 39.59343463 29.67948918 40.70911902 27.6015625 41.85546875 C25 43 25 43 22 42 C20.52432541 39.70953575 19.216183 37.46010119 17.9375 35.0625 C17.14196007 33.60805487 16.34638581 32.15362853 15.55078125 30.69921875 C15.13650879 29.93399902 14.72223633 29.1687793 14.29541016 28.38037109 C12.97766372 25.95895614 11.63905663 23.55029505 10.29296875 21.14453125 C9.84767822 20.34845459 9.4023877 19.55237793 8.94360352 18.73217773 C8.50846436 17.95430908 8.0733252 17.17644043 7.625 16.375 C0 2.73437802 0 2.73437802 0 0 Z " fill="#010000" transform="translate(325,794)"/>
<path d="M0 0 C4.47919735 0.75290729 8.69005326 2.15573856 12.9765625 3.6171875 C13.74245697 3.87501007 14.50835144 4.13283264 15.29745483 4.39846802 C18.55450718 5.49496745 21.8091693 6.59848321 25.06396484 7.70166016 C27.45062986 8.50943221 29.83851885 9.31350171 32.2265625 10.1171875 C32.99421936 10.37836365 33.76187622 10.63953979 34.55279541 10.90863037 C38.82469889 12.34415169 43.05922064 13.51789725 47.4609375 14.5078125 C50.9226558 15.43441227 51.72839008 15.66191576 54.04296875 18.54296875 C55.30767511 23.11139786 56.39802773 27.66092322 57.3125 32.3125 C57.62127075 33.83846802 57.62127075 33.83846802 57.9362793 35.39526367 C59.82426322 44.8492047 61.57587132 54.32976897 63.3125 63.8125 C63.44741852 64.54699371 63.58233704 65.28148743 63.72134399 66.03823853 C64.10527264 68.13559009 64.48508922 70.23363851 64.86328125 72.33203125 C65.08282471 73.54608643 65.30236816 74.7601416 65.52856445 76.01098633 C66 79 66 79 66 82 C61.545 82.495 61.545 82.495 57 83 C56.90937035 82.03946465 56.90937035 82.03946465 56.81690979 81.05952454 C56.18729342 74.392005 55.55404906 67.7248371 54.91870117 61.05786133 C54.68209348 58.56999393 54.44640958 56.08203849 54.21166992 53.59399414 C53.87401529 50.0168539 53.53303496 46.44004387 53.19140625 42.86328125 C53.08719864 41.75165115 52.98299103 40.64002106 52.87562561 39.4947052 C52.77559738 38.45400375 52.67556915 37.41330231 52.57250977 36.34106445 C52.44260399 34.97205742 52.44260399 34.97205742 52.31007385 33.57539368 C52.00154307 31.01281631 51.54066135 28.5228908 51 26 C49.96875 26.66 48.9375 27.32 47.875 28 C41.97063974 30.96802367 35.44843539 30.85516885 29 30 C27.30754312 29.04429739 25.63588911 28.04959258 24 27 C28.20068636 58.73448674 28.20068636 58.73448674 40.35449219 88.06787109 C43.62576171 93.89694335 46.57102164 99.89903485 49.5625 105.875 C49.89832092 106.54191864 50.23414185 107.20883728 50.58013916 107.89596558 C67.25812168 141.05273593 80.97986926 175.66311802 95 210 C115.03312669 207.90814834 134.99398297 205.3783859 154.95117188 202.66601562 C159.11087434 202.10134919 163.27230628 201.55058551 167.43421745 201.00247192 C170.67975309 200.5725072 173.9238647 200.13246778 177.16766739 199.68963623 C178.70369864 199.48172619 180.24024663 199.277595 181.77730942 199.07745361 C183.90637465 198.79931449 186.03301737 198.50689889 188.15966797 198.2109375 C189.36396454 198.04899902 190.56826111 197.88706055 191.80905151 197.72021484 C197.49379663 196.43713621 200.49697535 193.76561771 204 189.25 C207.72222214 184.5600001 211.55769797 180.00646692 215.5 175.5 C219.23477715 171.21851322 222.92461871 166.91664748 226.5 162.5 C231.09378551 156.83125189 235.87565606 151.33644286 240.66796875 145.8359375 C242.83028326 143.35269859 244.97929345 140.85918464 247.11328125 138.3515625 C247.62012451 137.75641846 248.12696777 137.16127441 248.64916992 136.5480957 C249.57693538 135.45703124 250.50311703 134.36461602 251.42700195 133.27026367 C251.86616943 132.75439697 252.30533691 132.23853027 252.7578125 131.70703125 C253.22759521 131.13452637 253.69737793 130.56202148 254.18139648 129.97216797 C256 128 256 128 258.77368164 125.70361328 C264.78805136 120.49538567 267.57239314 116.16907782 268.19506836 108.10786438 C268.36223592 103.14794331 268.30081275 98.2103153 268.1875 93.25 C268.1805299 91.18490667 268.17853545 89.11979026 268.18164062 87.0546875 C268.178477 82.03435396 268.10793484 77.01912938 268 72 C270.90643725 74.90643725 270.79717511 78.23535485 271.2890625 82.15625 C271.39721283 82.97315308 271.50536316 83.79005615 271.61679077 84.63171387 C271.84435449 86.36624451 272.06767586 88.10133614 272.28710938 89.83691406 C272.62032872 92.46318333 272.96920236 95.08700739 273.3203125 97.7109375 C276.237371 119.91021787 276.237371 119.91021787 273.41796875 124.671875 C272.68191406 125.35765625 271.94585938 126.0434375 271.1875 126.75 C267.33949954 130.59800046 263.92613777 134.50225504 260.625 138.8125 C256.95719154 143.55164372 253.20459515 148.19312067 249.3125 152.75 C245.54711111 157.15942551 241.87291777 161.62520652 238.26953125 166.16796875 C235.33746367 169.82674499 232.35787041 173.44509763 229.375 177.0625 C228.78106445 177.78324707 228.18712891 178.50399414 227.57519531 179.24658203 C224.44269044 183.04555951 221.30440456 186.83964289 218.16015625 190.62890625 C217.53641113 191.38228271 216.91266602 192.13565918 216.27001953 192.91186523 C215.08417555 194.34400961 213.89647103 195.77461631 212.70654297 197.20336914 C210.08552987 200.37149445 207.57318552 203.55461259 205.22265625 206.9296875 C203 210 203 210 201 211 C199.38843502 211.17071512 197.77081852 211.28578302 196.15258789 211.37304688 C194.63182396 211.45818542 194.63182396 211.45818542 193.08033752 211.54504395 C191.9723027 211.60236694 190.86426788 211.65968994 189.72265625 211.71875 C187.99178017 211.81295227 187.99178017 211.81295227 186.22593689 211.90905762 C183.76198416 212.04222468 181.29791319 212.17321839 178.83374023 212.30224609 C175.16426182 212.49466388 171.49521173 212.69394479 167.82617188 212.89453125 C124.66458508 215.22378827 124.66458508 215.22378827 103.3125 215.0625 C102.09884766 215.05798828 100.88519531 215.05347656 99.63476562 215.04882812 C96.75644685 215.03745137 93.87825891 215.0213253 91 215 C85.67512417 204.65647124 80.68173021 194.16014621 75.75 183.625 C75.42474335 182.93020538 75.09948669 182.23541077 74.76437378 181.51956177 C70.95682737 173.37986011 67.17863585 165.2273096 63.43261719 157.05908203 C54.31589495 137.19432222 45.15966173 117.28636403 34.625 98.125 C34.13966797 97.24199219 33.65433594 96.35898437 33.15429688 95.44921875 C30.58617241 90.80481308 27.97330282 86.19068583 25.28662109 81.61376953 C21.92968496 75.4464345 19.36288879 69.7005868 17.953125 62.80078125 C17.78895081 62.03238419 17.62477661 61.26398712 17.45562744 60.4723053 C16.22615461 54.54074971 15.26115751 48.57880164 14.359375 42.58984375 C14.22599731 41.71605072 14.09261963 40.84225769 13.9552002 39.94198608 C12.86639476 32.78382156 12.86639476 32.78382156 12.37451172 29.20727539 C10.70396482 15.46651046 10.70396482 15.46651046 2.71582031 4.56079102 C1 3 1 3 0 0 Z " fill="#FBFAFA" transform="translate(345,301)"/>
<path d="M0 0 C1.265625 1.84765625 1.265625 1.84765625 2.25 4.0625 C2.75273437 5.16271484 2.75273437 5.16271484 3.265625 6.28515625 C3.50796875 6.85105469 3.7503125 7.41695312 4 8 C1.79234743 9.77168757 -0.41599645 11.54249789 -2.625 13.3125 C-3.30361084 13.85648438 -3.98222168 14.40046875 -4.68139648 14.9609375 C-8.55077757 18.05752007 -12.43806572 21.12812178 -16.3515625 24.16870117 C-35.46051372 38.71215573 -35.46051372 38.71215573 -52.36279297 55.61474609 C-54.52219536 57.44183365 -55.8156126 57.39540572 -58.62109375 57.44140625 C-60.01050171 57.47923218 -60.01050171 57.47923218 -61.42797852 57.51782227 C-62.42112061 57.53256592 -63.4142627 57.54730957 -64.4375 57.5625 C-73.19213672 57.80531924 -81.82447106 58.35991071 -90.52709961 59.34008789 C-94.7130321 59.80470218 -98.77851317 60.10131568 -103 60 C-91.64374575 50.7677859 -79.35886123 42.80695086 -67 35 C-66.18611816 34.4853418 -65.37223633 33.97068359 -64.53369141 33.44042969 C-51.56067492 25.26292495 -38.41892321 17.42421525 -25 10 C-24.04335449 9.46971191 -23.08670898 8.93942383 -22.10107422 8.39306641 C-19.22192257 6.8078405 -16.33235451 5.24383562 -13.4375 3.6875 C-12.1071875 2.95732666 -12.1071875 2.95732666 -10.75 2.21240234 C-9.92371094 1.77492676 -9.09742188 1.33745117 -8.24609375 0.88671875 C-7.52091553 0.49701904 -6.7957373 0.10731934 -6.04858398 -0.29418945 C-3.52350435 -1.16416981 -2.4196835 -1.12494334 0 0 Z " fill="#FCFBFB" transform="translate(404,553)"/>
<path d="M0 0 C1.06476563 0.26554688 2.12953125 0.53109375 3.2265625 0.8046875 C4.69262393 1.16180503 6.15877477 1.51855559 7.625 1.875 C8.66527344 2.13603516 8.66527344 2.13603516 9.7265625 2.40234375 C21.85430443 5.32599582 33.76172331 6.30978329 46.18579102 6.20581055 C48.43191996 6.18754538 50.67763242 6.18530206 52.92382812 6.18554688 C62.32014499 6.16204742 71.63266496 5.74605574 81 5 C81 5.66 81 6.32 81 7 C79.671875 8.3046875 79.671875 8.3046875 77.75 9.875 C73.44729475 13.52161899 69.49799195 17.43653991 65.56542969 21.47216797 C62.85892114 24.225467 60.08233856 26.82760923 57.15625 29.34765625 C52.7294683 33.17682242 48.61226605 37.27573445 44.5 41.4375 C43.77296875 42.16904297 43.0459375 42.90058594 42.296875 43.65429688 C40.52890501 45.43389824 38.76333622 47.21580918 37 49 C33.08538931 47.69512977 31.58457979 45.23778485 29.1875 42.0625 C28.20466311 40.78237084 27.22157794 39.50243227 26.23828125 38.22265625 C25.71572754 37.5383252 25.19317383 36.85399414 24.65478516 36.14892578 C22.9502891 33.93544477 21.21933555 31.74515565 19.48046875 29.55859375 C13.92194214 22.54733034 8.47519281 15.5258198 3.625 8 C3.24972168 7.41863281 2.87444336 6.83726562 2.48779297 6.23828125 C0 2.26934452 0 2.26934452 0 0 Z " fill="#010000" transform="translate(371,870)"/>
<path d="M0 0 C-2.1966768 2.1966768 -3.75104392 2.83982305 -6.62304688 3.96777344 C-7.58585571 4.34867126 -8.54866455 4.72956909 -9.54064941 5.12200928 C-10.58942261 5.53033997 -11.6381958 5.93867065 -12.71875 6.359375 C-13.80522827 6.78623596 -14.89170654 7.21309692 -16.0111084 7.65289307 C-18.32362 8.55990057 -20.63717086 9.46426205 -22.95166016 10.36621094 C-26.43291718 11.7238389 -29.91002381 13.09167593 -33.38671875 14.4609375 C-50.39629691 21.13375315 -67.22342333 27.53894786 -85.125 31.375 C-86.26453125 31.63410156 -87.4040625 31.89320313 -88.578125 32.16015625 C-97.2144362 34.0537326 -104.08136358 35.30808688 -112.4375 31.625 C-113.46746094 31.18414062 -114.49742187 30.74328125 -115.55859375 30.2890625 C-118 29 -118 29 -119 27 C-117.81664062 26.56429687 -116.63328125 26.12859375 -115.4140625 25.6796875 C-101.44120613 20.45317666 -90.67759814 14.67759814 -80 4 C-78.23745882 3.78811389 -76.46711299 3.64079867 -74.69604492 3.51928711 C-72.99112129 3.39927589 -72.99112129 3.39927589 -71.25175476 3.27684021 C-70.00723038 3.19450638 -68.76270599 3.11217255 -67.48046875 3.02734375 C-65.55609734 2.8962899 -65.55609734 2.8962899 -63.59284973 2.7625885 C-60.85824401 2.57708832 -58.12342631 2.39518757 -55.38842773 2.21557617 C-52.62145006 2.03353922 -49.85489804 1.84647126 -47.08862305 1.65405273 C-31.37847164 0.56144787 -15.7531228 -0.32728582 0 0 Z " fill="#FCFCFC" transform="translate(520,154)"/>
<path d="M0 0 C0.99 0.495 0.99 0.495 2 1 C-0.2777991 5.56096946 -2.57119828 10.1136341 -4.87866211 14.65966797 C-5.65956787 16.20344248 -6.43635724 17.74930706 -7.20874023 19.29736328 C-16.11111116 37.12512355 -16.11111116 37.12512355 -22 42 C-34.99535397 46.33178466 -50.24772418 41.1244987 -63 38 C-63 37.34 -63 36.68 -63 36 C-61.13719416 34.73164195 -59.20627388 33.56312799 -57.25390625 32.4375 C-56.65615891 32.08997681 -56.05841156 31.74245361 -55.44255066 31.38439941 C-53.48650626 30.24924173 -51.52463922 29.12458425 -49.5625 28 C-48.21801382 27.22271511 -46.87393872 26.44471872 -45.53027344 25.66601562 C-42.88074791 24.13118463 -40.2293371 22.59968936 -37.57666016 21.0703125 C-33.94584596 18.9734557 -30.33987816 16.83664582 -26.74023438 14.68676758 C-20.42440866 10.92066984 -14.03367648 7.30514002 -7.5625 3.8125 C-6.83321289 3.41289062 -6.10392578 3.01328125 -5.35253906 2.6015625 C-3.60076741 1.670645 -1.80346873 0.82632431 0 0 Z " fill="#FCFCFC" transform="translate(510,271)"/>
<path d="M0 0 C-3.58383557 3.79227629 -7.37400067 6.80897773 -11.6875 9.75 C-17.05012907 13.49063398 -21.98503274 17.45348493 -26.76953125 21.92578125 C-28.81160319 23.82480087 -30.91451582 25.59837655 -33.0625 27.375 C-38.02233709 31.71858479 -41.99955857 36.78088105 -46 42 C-46.41572266 42.54076172 -46.83144531 43.08152344 -47.25976562 43.63867188 C-52.95182758 51.11004303 -57.62043337 58.63664103 -61.625 67.13671875 C-63 70 -63 70 -65 73 C-65.62958174 71.48105765 -66.25340464 69.95972805 -66.875 68.4375 C-67.22304688 67.59058594 -67.57109375 66.74367188 -67.9296875 65.87109375 C-68.28289062 64.92363281 -68.63609375 63.97617187 -69 63 C-69.49113281 61.89914062 -69.98226563 60.79828125 -70.48828125 59.6640625 C-71.04909101 55.64849335 -70.91484505 55.22849507 -68.73828125 52.08984375 C-67.61945835 50.68698739 -66.47582592 49.30367841 -65.3125 47.9375 C-64.71252197 47.19653076 -64.11254395 46.45556152 -63.49438477 45.69213867 C-62.26374479 44.17341078 -61.02436434 42.66172391 -59.77636719 41.15722656 C-57.71426769 38.65300568 -55.73276821 36.09465777 -53.75610352 33.52294922 C-49.14226005 27.53802284 -44.35984154 21.6917289 -39.30883789 16.0690918 C-36.87012359 13.33338208 -34.94826746 10.90672799 -33.15625 7.67578125 C-26.23054287 -4.186011 -12.04112351 -0.93672106 0 0 Z " fill="#050000" transform="translate(366,663)"/>
<path d="M0 0 C-2.71871742 1.81247828 -5.40142038 3.21786783 -8.3125 4.6875 C-15.78711127 8.75558434 -20.5127996 13.70933201 -23 22 C-23.8646936 29.12037815 -23.39429152 35.16577115 -19 41 C-15.11212059 45.21037632 -10.76401957 48.22146418 -5.8125 51.0625 C-1.40496252 53.64997578 1.42076129 55.52931958 4 60 C4.7572605 64.6103801 4.60072855 68.54560456 2.8125 72.875 C-1.08737527 77.44726756 -5.00358463 80.13409164 -11 81 C-22.47296074 81.72270619 -22.47296074 81.72270619 -27 79 C-26.26394531 78.82984375 -25.52789062 78.6596875 -24.76953125 78.484375 C-17.1788947 76.63435651 -17.1788947 76.63435651 -11 72 C-9.27254156 68.54508312 -9.49614539 64.6312293 -10.625 60.9765625 C-12.62033195 58.10827282 -15.05209469 57.23652128 -18.1875 55.75 C-25.40396096 52.01404455 -30.17201146 48.21232142 -33.4375 40.6875 C-35.0184344 30.32359672 -34.23364755 21.41522123 -28.33984375 12.484375 C-21.15228022 3.57002516 -11.29409737 -0.26265343 0 0 Z " fill="#FAFAFA" transform="translate(388,169)"/>
<path d="M0 0 C6.73770066 6.35268919 10.5844123 11.5872237 11.625 20.9375 C11.73561768 21.80157471 11.84623535 22.66564941 11.96020508 23.5559082 C12.19595029 25.41064643 12.42367267 27.26641912 12.64404297 29.12304688 C13.00146297 32.01182417 13.41720536 34.88689368 13.84765625 37.765625 C15.37618422 48.30704643 16.29642355 58.71796999 16.375 69.375 C16.38877686 70.39037842 16.40255371 71.40575684 16.41674805 72.4519043 C16.37651371 78.92641363 15.66790791 85.02867205 13 91 C12.01 91.495 12.01 91.495 11 92 C8.6171875 91.00390625 8.6171875 91.00390625 5.875 89.5625 C4.50988281 88.85287109 4.50988281 88.85287109 3.1171875 88.12890625 C2.41851562 87.75636719 1.71984375 87.38382812 1 87 C0.90363609 82.26010003 1.24436255 77.86300673 2 73.1875 C4.2297516 57.38151718 2.70271682 41.8389989 1.06762695 26.05126953 C0.18260491 17.33165682 -0.18564936 8.77021339 0 0 Z " fill="#FCFBFB" transform="translate(333,207)"/>
<path d="M0 0 C12.87 0.495 12.87 0.495 26 1 C22.39348935 6.40976597 18.80457364 11.74073644 15 17 C11.98016563 15.67872148 10.21363711 14.38106741 8.203125 11.77734375 C7.71972656 11.15666016 7.23632812 10.53597656 6.73828125 9.89648438 C6.24714844 9.25001953 5.75601563 8.60355469 5.25 7.9375 C4.49009766 6.96200195 4.49009766 6.96200195 3.71484375 5.96679688 C0 1.1555235 0 1.1555235 0 0 Z " fill="#040000" transform="translate(514,656)"/>
<path d="M0 0 C0 0.33 0 0.66 0 1 C-10.5702268 3.2597128 -20.30249976 2.88845681 -31 2 C-31 1.67 -31 1.34 -31 1 C-20.64297197 -0.02472362 -10.39671302 -0.1050173 0 0 Z " fill="#F51410" transform="translate(413,637)"/>
<path d="M0 0 C1.21171875 0.00322266 2.4234375 0.00644531 3.671875 0.00976562 C4.94289063 0.01814453 6.21390625 0.02652344 7.5234375 0.03515625 C8.8021875 0.03966797 10.0809375 0.04417969 11.3984375 0.04882812 C14.56515042 0.06064422 17.73177106 0.0771181 20.8984375 0.09765625 C20.8984375 0.42765625 20.8984375 0.75765625 20.8984375 1.09765625 C19.74057739 1.12738525 19.74057739 1.12738525 18.55932617 1.15771484 C15.06784792 1.25286768 11.57697598 1.36258672 8.0859375 1.47265625 C6.87099609 1.50359375 5.65605469 1.53453125 4.40429688 1.56640625 C2.65922852 1.62441406 2.65922852 1.62441406 0.87890625 1.68359375 C-0.19464111 1.71501465 -1.26818848 1.74643555 -2.37426758 1.77880859 C-5.317639 1.91357932 -5.317639 1.91357932 -8.1015625 4.09765625 C-8.1015625 3.10765625 -8.1015625 2.11765625 -8.1015625 1.09765625 C-5.33538687 -0.28543156 -3.0913825 -0.01444571 0 0 Z " fill="#FA1310" transform="translate(345.1015625,661.90234375)"/>
<path d="M0 0 C0 3 0 3 -1.20703125 4.60546875 C-1.73683594 5.12753906 -2.26664062 5.64960937 -2.8125 6.1875 C-3.33457031 6.71730469 -3.85664063 7.24710938 -4.39453125 7.79296875 C-6 9 -6 9 -9 9 C-7.48328036 4.44984107 -3.83108947 2.49942736 0 0 Z " fill="#ED130E" transform="translate(366,663)"/>
<path d="M0 0 C0.33 0 0.66 0 1 0 C1.98248524 4.0527516 2.08159574 7.83861737 2 12 C0.02 10.35 -1.96 8.7 -4 7 C-3.67 6.34 -3.34 5.68 -3 5 C-2.34 5.66 -1.68 6.32 -1 7 C-0.67 4.69 -0.34 2.38 0 0 Z " fill="#EC140F" transform="translate(169,798)"/>
<path d="M0 0 C0 3.77910478 -0.99703962 4.46106101 -3.5 7.1875 C-4.47453125 8.26064453 -4.47453125 8.26064453 -5.46875 9.35546875 C-5.9740625 9.89816406 -6.479375 10.44085938 -7 11 C-7 7.22089522 -6.00296038 6.53893899 -3.5 3.8125 C-2.8503125 3.09707031 -2.200625 2.38164062 -1.53125 1.64453125 C-1.0259375 1.10183594 -0.520625 0.55914062 0 0 Z " fill="#EE1510" transform="translate(160,169)"/>
<path d="M0 0 C0.66 0.33 1.32 0.66 2 1 C-0.52788007 3.79872437 -2.20411134 5.45773019 -6 6 C-4 4 -2 2 0 0 Z " fill="#F2130F" transform="translate(574,771)"/>
</svg>
